HIERARCHY
ROOT Hips
{
	OFFSET 0.000000 0.000000 0.000000 
	CHANNELS 6 Xposition Yposition Zposition Zrotation Xrotation Yrotation
	JOINT Spine
	{
		OFFSET -0.000000 8.280624 0.000000 
		CHANNELS 3 Zrotation Xrotation Yrotation
		JOINT Spine1
		{
			OFFSET -0.000000 24.860672 0.000000 
			CHANNELS 3 Zrotation Xrotation Yrotation
			JOINT Neck
			{
				OFFSET -0.000000 24.758574 2.250779 
				CHANNELS 3 Zrotation Xrotation Yrotation
				JOINT Head
				{
					OFFSET -0.000000 14.137651 -2.019665 
					CHANNELS 3 Zrotation Xrotation Yrotation
					End Site
					{
						OFFSET -0.000000 25.245806 0.000000 
					}
				}
			}
			JOINT LeftShoulder
			{
				OFFSET 4.021533 22.370487 -0.301823 
				CHANNELS 3 Zrotation Xrotation Yrotation
				JOINT LeftArm
				{
					OFFSET 12.928750 0.000000 0.000000 
					CHANNELS 3 Zrotation Xrotation Yrotation
					JOINT LeftForeArm
					{
						OFFSET 29.110218 0.000000 0.000000 
						CHANNELS 3 Zrotation Xrotation Yrotation
						JOINT LeftHand
						{
							OFFSET 26.112843 0.000000 0.000000 
							CHANNELS 3 Zrotation Xrotation Yrotation
							End Site
							{
								OFFSET 15.147485 0.000000 0.000000 
							}
						}
					}
				}
			}
			JOINT RightShoulder
			{
				OFFSET -4.040554 22.370487 -0.301823 
				CHANNELS 3 Zrotation Xrotation Yrotation
				JOINT RightArm
				{
					OFFSET -12.928750 0.000000 0.000000 
					CHANNELS 3 Zrotation Xrotation Yrotation
					JOINT RightForeArm
					{
						OFFSET -29.110218 0.000000 0.000000 
						CHANNELS 3 Zrotation Xrotation Yrotation
						JOINT RightHand
						{
							OFFSET -26.112843 0.000000 0.000000 
							CHANNELS 3 Zrotation Xrotation Yrotation
							End Site
							{
								OFFSET -15.147485 0.000000 0.000000 
							}
						}
					}
				}
			}
		}
	}
	JOINT LeftUpLeg
	{
		OFFSET 10.098323 0.000000 0.000000 
		CHANNELS 3 Zrotation Xrotation Yrotation
		JOINT LeftLeg
		{
			OFFSET -0.000000 -44.180832 0.000000 
			CHANNELS 3 Zrotation Xrotation Yrotation
			JOINT LeftFoot
			{
				OFFSET -0.000000 -40.401024 0.000000 
				CHANNELS 3 Zrotation Xrotation Yrotation
				JOINT LeftToeBase
				{
					OFFSET -0.000000 -6.563910 15.147485 
					CHANNELS 3 Zrotation Xrotation Yrotation
					End Site
					{
						OFFSET -0.000000 0.000000 4.039329 
					}
				}
			}
		}
	}
	JOINT RightUpLeg
	{
		OFFSET -10.098323 0.000000 0.000000 
		CHANNELS 3 Zrotation Xrotation Yrotation
		JOINT RightLeg
		{
			OFFSET -0.000000 -44.180832 0.000000 
			CHANNELS 3 Zrotation Xrotation Yrotation
			JOINT RightFoot
			{
				OFFSET -0.000000 -40.401024 0.000000 
				CHANNELS 3 Zrotation Xrotation Yrotation
				JOINT RightToeBase
				{
					OFFSET -0.000000 -6.563910 15.147485 
					CHANNELS 3 Zrotation Xrotation Yrotation
					End Site
					{
						OFFSET -0.000000 0.000000 4.039329 
					}
				}
			}
		}
	}
}
MOTION
Frames: 6
Frame Time: 0.008333
-40.557365 95.272873 -0.864250 9.399243 1.267044 100.471588 -3.534505 10.549738 -9.180016 -0.618195 4.791208 -9.480463 -2.729029 19.755426 31.567511 -16.115982 -12.155058 29.055241 1.143680 1.852051 -26.933010 -21.833441 40.793755 -70.298782 -17.301813 -17.809711 -43.882782 -3.628785 -24.667521 10.402938 -2.510543 4.549585 9.989361 64.554283 8.072599 16.614874 32.337814 -32.867779 65.397545 -2.818642 -49.170525 8.584827 13.002810 5.363581 9.830686 -1.857187 13.629807 12.473958 -11.267044 5.408047 12.980328 0.000000 0.000000 0.000000 -10.910184 5.407132 -0.404320 -1.535285 18.819759 10.577636 15.364604 0.179255 -17.107279 0.000000 0.000000 0.000000 
-40.594784 95.207703 -0.285092 9.276783 0.894061 99.695549 -3.529398 10.709417 -9.193215 -0.696944 4.684114 -9.495511 -2.783643 19.794077 31.864536 -16.324221 -12.297949 29.298901 1.220055 1.697239 -27.037540 -21.417746 40.426319 -71.127235 -16.802620 -17.582302 -43.469139 -3.477488 -24.154341 9.308037 -2.557101 4.589714 9.729906 64.176720 8.103902 16.522711 33.237537 -32.399837 67.205528 -4.823541 -49.857990 8.885962 13.596955 5.230676 10.214814 -1.884081 13.847890 13.243880 -11.370885 5.514781 12.724123 0.000000 0.000000 0.000000 -10.313272 4.746165 -0.301709 -1.569566 19.179438 10.903410 14.858868 -0.113815 -16.959343 0.000000 0.000000 0.000000 
-40.610458 95.135017 0.244840 9.168406 0.585865 98.991364 -3.475513 10.803742 -9.241116 -0.843425 4.657407 -9.535452 -2.914381 19.919968 32.157745 -16.542933 -12.591688 29.509048 1.277061 1.577424 -27.121555 -20.608335 40.395615 -71.963585 -15.823753 -17.608765 -43.609016 -3.422696 -23.812674 8.631637 -2.628102 4.643553 9.537149 64.029114 7.533269 16.481459 33.580898 -31.798605 68.370132 -4.735868 -49.930180 9.791910 14.115524 5.151290 10.348493 -1.918208 13.938643 13.453006 -11.570001 5.623665 13.145908 0.000000 0.000000 0.000000 -9.812764 4.178340 -0.223339 -1.582581 19.504261 11.249105 14.383575 -0.414760 -16.792116 0.000000 0.000000 0.000000 
-40.642269 95.063545 0.772919 9.012298 0.272884 98.305923 -3.388912 10.883002 -9.287560 -1.011677 4.613395 -9.569614 -2.903893 19.963463 32.423409 -16.851517 -12.690104 29.703669 1.347865 1.462867 -27.161856 -20.206247 40.071957 -72.705032 -15.155385 -17.305304 -43.369732 -3.255291 -23.202583 7.775757 -2.656189 4.672983 9.353948 63.883560 7.044098 16.418169 33.273056 -30.921593 69.255585 -4.243367 -49.368305 10.693027 14.655005 5.003987 10.274745 -2.059459 14.136872 14.115628 -11.691025 5.654769 13.308564 0.000000 0.000000 0.000000 -9.307681 3.541182 -0.178140 -1.607129 19.876881 11.586864 13.927159 -0.675045 -16.592958 0.000000 0.000000 0.000000 
-40.670170 94.991982 1.308523 8.890345 -0.030903 97.667229 -3.339788 10.998332 -9.316995 -1.095176 4.561560 -9.594893 -2.962411 20.099974 32.680649 -17.156719 -12.906960 29.867054 1.391288 1.364538 -27.212225 -19.757788 39.770676 -73.440109 -14.618274 -17.177139 -43.168602 -2.765791 -22.799885 6.858761 -2.686400 4.769218 9.177532 63.687477 6.340787 16.368238 33.399197 -29.896366 70.093185 -4.012280 -48.928112 12.057653 15.115540 4.921141 10.787857 -1.876318 14.222380 14.304311 -11.801106 5.828262 13.288450 0.000000 0.000000 0.000000 -8.781752 2.942191 -0.121793 -1.666516 20.281523 11.934302 13.506741 -0.906234 -16.370155 0.000000 0.000000 0.000000 
-40.702435 94.922935 1.856769 8.788997 -0.347839 97.013168 -3.283223 11.119175 -9.332534 -1.175839 4.564116 -9.605250 -3.029857 20.137123 32.899601 -17.366846 -13.054178 30.024229 1.456902 1.245402 -27.244318 -19.398312 39.414658 -74.093040 -13.970360 -16.861731 -42.930496 -2.645884 -22.192694 5.763280 -2.685080 4.832911 9.044407 63.465843 5.573253 16.289234 34.139500 -28.961718 71.457291 -4.924066 -49.134014 12.859182 15.658676 4.823492 11.031887 -1.858891 14.420557 14.602076 -11.941133 5.939044 13.446542 0.000000 0.000000 0.000000 -8.224747 2.338362 0.137400 -1.703956 20.748344 12.340133 13.155729 -1.165490 -16.308262 0.000000 0.000000 0.000000 
